<svg xmlns="http://www.w3.org/2000/svg" viewBox="0 0 24 8" fill="currentColor">
<g>
    <path d="m 2.9558073,0 h 0.213422 C 3.9101652,0.01610738 4.6390205,0.31409396 5.1625079,0.84161074 4.9692204,1.0389262 4.7719058,1.2281879 4.582645,1.4254899 4.2886868,1.1597315 3.9343262,0.95436242 3.5477509,0.88187919 2.9759416,0.76107383 2.359837,0.86979866 1.8806448,1.1959732 1.3571575,1.5382416 1.0027968,2.1181074 0.92628713,2.7382416 0.84172377,3.3503221 1.0148773,3.9946174 1.413533,4.4697718 1.7960816,4.9328591 2.3799713,5.2227919 2.9839952,5.2429262 3.5477509,5.2751409 4.1356672,5.1019866 4.5464036,4.7073557 4.8685497,4.4295034 5.0175421,4.006698 5.0658642,3.5959597 c -0.6684532,0 -1.3369063,0.00403 -2.0053594,0 V 2.7664295 H 5.8752561 C 6.0202219,3.6563624 5.8108266,4.6590336 5.1343201,5.2952752 4.6833157,5.7462819 4.0591576,6.0120537 3.4229192,6.0644027 2.8068149,6.1248054 2.1705762,6.0080268 1.6229281,5.7100403 0.96655539,5.3597047 0.443068,4.7677584 0.18535116,4.0711275 -0.0562584,3.4308591 -0.06028523,2.7060268 0.16521706,2.0617315 0.37058517,1.4738121 0.76521411,0.95436242 1.2725943,0.59194631 1.7598401,0.23355705 2.3517834,0.03624161 2.9558073,0 Z" />
    <path d="m 19.103379,0.20939597 h 0.86174 V 5.9597047 c -0.285904,0 -0.575834,0.00403 -0.86174,-0.00403 0.004,-1.9127516 0,-3.8295167 0,-5.74628183 z" />
    <path d="M 7.7920252,2.2026711 C 8.3235663,2.102 8.8994023,2.2147517 9.3383263,2.5328725 9.7369821,2.8147517 10.014833,3.2577047 10.099397,3.7409262 10.208121,4.3006443 10.071209,4.9127248 9.7087945,5.3556778 9.3181923,5.8509799 8.677927,6.1167517 8.053769,6.0764832 7.4819597,6.0442685 6.9262577,5.7583624 6.5880043,5.2912483 6.2054558,4.7758121 6.1128388,4.0671007 6.3222338,3.4630738 6.5316287,2.8147517 7.1235722,2.3194497 7.7920252,2.2026711 M 7.9128306,2.9677718 C 7.695382,3.0241476 7.4940407,3.1489799 7.349075,3.3261611 6.9584729,3.7932752 6.9826338,4.5543356 7.4135046,4.9892349 7.6591408,5.2388993 8.0296089,5.3556778 8.371889,5.2872215 8.6900085,5.2308456 8.9678593,5.0174228 9.1208788,4.7355436 9.3866493,4.256349 9.3101396,3.5959597 8.9034301,3.2214631 8.6416864,2.9798523 8.259138,2.8791812 7.9128306,2.9677718 Z" />
    <path d="m 12.060461,2.2026711 c 0.60805,-0.1167785 1.272477,0.052349 1.727508,0.4791947 0.740934,0.6644295 0.821473,1.9087114 0.189261,2.673812 C 13.594681,5.8388993 12.974551,6.1046711 12.362473,6.0764832 11.778583,6.0603758 11.202747,5.7704429 10.85644,5.2912483 10.465838,4.7637315 10.381274,4.0389127 10.602749,3.4228054 c 0.221476,-0.628188 0.80134,-1.1073826 1.457712,-1.2201343 m 0.120805,0.7651007 c -0.217449,0.056376 -0.41879,0.1812081 -0.563756,0.3543624 -0.386575,0.4590604 -0.370468,1.2080403 0.04429,1.6469665 0.245637,0.2617449 0.628186,0.390604 0.982546,0.3181208 0.314092,-0.060403 0.59597,-0.2697987 0.74899,-0.5516779 C 13.655082,4.2523221 13.578572,3.5919329 13.167834,3.2174362 12.906091,2.9758255 12.523542,2.8791812 12.181262,2.9677718 Z" />
    <path d="m 15.680577,2.4362282 c 0.463085,-0.2899329 1.079189,-0.3704698 1.578517,-0.1208054 0.157044,0.068456 0.285903,0.1852349 0.410736,0.3020134 0.004,-0.1087248 0,-0.2214765 0.004,-0.3342281 0.269798,0.00403 0.539595,0 0.813419,0.00403 v 3.5516644 c -0.004,0.5355839 -0.140938,1.1033557 -0.527514,1.4939463 -0.422817,0.4308859 -1.071136,0.5637718 -1.655025,0.4751678 -0.624159,-0.092617 -1.16778,-0.547651 -1.40939,-1.1234765 0.24161,-0.1167785 0.4953,-0.209396 0.744963,-0.3181074 0.140939,0.3301879 0.426844,0.6120537 0.785232,0.6764832 0.358387,0.06443 0.77315,-0.024161 1.006706,-0.3221342 C 17.68191,6.4147383 17.68191,5.9959597 17.66983,5.6214631 17.484596,5.8026577 17.271173,5.9637315 17.013456,6.0241342 16.453728,6.1811812 15.837624,5.9878926 15.406753,5.6093691 14.971856,5.2308456 14.71414,4.646953 14.738301,4.0671007 14.750381,3.4107383 15.120848,2.7785101 15.680577,2.4362282 m 0.833553,0.5154362 c -0.245636,0.040269 -0.475165,0.1771947 -0.632211,0.366443 -0.378522,0.4510067 -0.378522,1.1717986 0.004,1.6147517 0.21745,0.2617449 0.567783,0.4067114 0.906037,0.3704698 0.318119,-0.032215 0.612077,-0.2335571 0.769123,-0.5114094 0.265771,-0.471141 0.221477,-1.111396 -0.13691,-1.5221208 C 17.202719,3.016094 16.848358,2.8912752 16.51413,2.9516644 Z" />
    <path d="m 21.000015,2.6415973 c 0.483217,-0.4510067 1.228181,-0.6040268 1.848313,-0.3664429 0.587916,0.2214765 0.96241,0.781208 1.151672,1.3570469 -0.873821,0.3624161 -1.743616,0.720792 -2.617436,1.0832081 0.120805,0.2295302 0.306036,0.4389262 0.555699,0.5234899 0.350336,0.1248322 0.769126,0.080537 1.063083,-0.1530201 0.116779,-0.088591 0.209396,-0.2053691 0.297987,-0.3181208 0.221475,0.1489933 0.44295,0.2939597 0.664424,0.442953 C 23.649666,5.6818523 23.122152,6.0120537 22.554369,6.0644027 21.926184,6.1409127 21.257732,5.899302 20.851021,5.4080268 20.182569,4.6348725 20.246999,3.3382416 21.000015,2.6415973 m 0.430868,0.7449665 c -0.13691,0.1973154 -0.193286,0.4389261 -0.189259,0.67651 0.58389,-0.2416107 1.16778,-0.4832215 1.751669,-0.728859 C 22.896648,3.1087114 22.663094,2.9717987 22.42551,2.935557 22.042961,2.8671007 21.644307,3.0724698 21.430883,3.3865638 Z" />
</g>
</svg>
