<svg id="ehpJyiRz6Ig1" xmlns="http://www.w3.org/2000/svg" xmlns:xlink="http://www.w3.org/1999/xlink" viewBox="0 0 968.80273 930.00006" shape-rendering="geometricPrecision" text-rendering="geometricPrecision">
<style><![CDATA[
#ehpJyiRz6Ig7_tr {animation: ehpJyiRz6Ig7_tr__tr 3000ms linear infinite normal forwards}@keyframes ehpJyiRz6Ig7_tr__tr { 0% {transform: translate(655.814453px,465px) rotate(0deg)} 100% {transform: translate(655.814453px,465px) rotate(720deg)}}
]]></style>
<path d="M606.5625,0c22.12168,0,41.85389,9.684397,55.36328,25h232.08789c27.61396,0,50,22.386054,50,50v156.91992C966.72683,278.68996,966.81641,348.75453,966.81641,465c0,116.24496-.0899,186.31011-22.80274,233.0957v156.9043c0,27.61394-22.38604,50-50,50h-232.08789c-13.50939,15.31559-33.2416,25-55.36328,25h288.4082c40.90365,0,73.83204-32.92839,73.83204-73.83204v-782.333976C968.80274,32.930343,935.87435,0,894.9707,0Z" fill="#fff" fill-rule="evenodd" stroke-width="34.0821" stroke-linecap="round" stroke-linejoin="round"/><path d="M606.5625,0c22.12168,0,41.85389,9.684397,55.36328,25h135.58789c27.61396,0,50,22.386054,50,50v88.33789c8.85626,1.83195,17.12007,4.02591,24.78907,6.65429v-96.158196C872.30274,32.930343,839.37435,0,798.4707,0ZM872.30274,760.02148c-7.66894,2.62651-15.93289,4.81779-24.78907,6.64844v88.33008c0,27.61394-22.38604,50-50,50h-135.58789c-13.50939,15.31559-33.2416,25-55.36328,25h191.9082c40.90365,0,73.83204-32.92839,73.83204-73.83204Z" fill="#fff" fill-rule="evenodd" stroke-width="34.0821" stroke-linecap="round" stroke-linejoin="round"/><path d="M606.5625,0c22.12168,0,41.85389,9.684397,55.36328,25h39.58789c27.61396,0,50,22.386054,50,50v79.69531c8.82851.21611,16.69386.65102,24.78907,1.02539v-81.886716C776.30274,32.930343,743.37435,0,702.4707,0ZM776.30274,774.28125c-8.09521.3741-15.96056.80943-24.78907,1.02539v79.69336c0,27.61394-22.38604,50-50,50h-39.58789c-13.50939,15.31559-33.2416,25-55.36328,25h95.9082c40.90365,0,73.83204-32.92839,73.83204-73.83204Z" fill="#fff" fill-rule="evenodd" stroke-width="34.0821" stroke-linecap="round" stroke-linejoin="round"/><path d="M73.833985,0C32.930344,0,0,32.930343,0,73.833984v782.333976C0,897.07161,32.930344,930,73.833985,930h532.728515c40.90364,0,73.83203-32.92839,73.83203-73.83204v-80.20898c-8.21481.01-15.85568.041-24.58008.041-.28909,0-.52593-.002-.81445-.002v79.00196c0,27.61394-22.38606,50-50,50h-530c-27.613944,0-50-22.38606-50-50L25,75c0-27.613946,22.386056-50,50-50h530c27.61394,0,50,22.386054,50,50v79.00195c.28852,0,.52537-.002.81445-.002c8.72441,0,16.36527.0334,24.58008.043v-80.208966C680.39453,32.930343,647.46614,0,606.5625,0ZM277.5,95c-13.80696,0-25,11.19302-25,25s11.19304,25,25,25h125c13.80698,0,25-11.19304,25-25s-11.19302-25-25-25Zm68.91211,205.35351c-2.11931.29299-4.63861,1.01172-6.41211,1.01172-87.27282,0-130.9082,109.09028-130.9082,185.45312c0,72.27486,58.63534,141.81836,130.9082,141.81836c3.02786,0,7.9039,2.10317,9.77149.54493-4.89697-41.46404-4.95704-94.46222-4.95704-164.18164c0-69.75958.0594-122.77721,4.96485-164.24805-.71034-.55558-1.92442-.5979-3.36719-.39844ZM277.5,785c-13.80696,0-25,11.19302-25,25s11.19304,25,25,25h125c13.80698,0,25-11.19304,25-25s-11.19302-25-25-25Z" fill="#fff" fill-rule="evenodd" stroke-width="34.0821" stroke-linecap="round" stroke-linejoin="round"/><path d="M655.81419,178.99952c-134.81972,0-202.22998.00047-244.1289,41.90039-41.87092,41.8699-41.8711,109.27987-41.8711,244.09961s.00018,202.23098,41.8711,244.1289c41.89892,41.87092,109.30918,41.8711,244.1289,41.8711c134.82074,0,202.23165-.00018,244.10157-41.8711c41.8989-41.89792,41.89843-109.30918,41.89843-244.1289s.00047-202.22971-41.89843-244.09961c-41.86992-41.89992-109.28083-41.90039-244.10157-41.90039Zm0,69.51171c57.416265-.000003,112.48091,22.808519,153.080341,63.407949s63.407952,95.664076,63.407949,153.080341-22.808521,112.480903-63.40795,153.080332-95.664073,63.40795-153.08034,63.407948c-119.563176,0-216.48828-96.925104-216.48828-216.48828-.000003-57.416263,22.808517-112.480907,63.407945-153.080337s95.664071-63.407953,153.080335-63.407953Z" transform="translate(.000259 0.000484)" fill="#fff"/><g id="ehpJyiRz6Ig7_tr" transform="translate(655.814453,465) rotate(0)"><path d="M655.81445,208.97852C514.41781,208.978807,399.793257,323.60336,399.79297,465c.000287,141.39664,114.62484,256.021193,256.02148,256.02148C797.211094,721.021198,911.835653,606.396644,911.83594,465c-.000287-141.396644-114.624846-256.021198-256.02149-256.02148Zm0,56.69921c18.71642,0,28.07415-.00128,35.45508,3.03321c9.84256,4.04606,17.66212,11.8064,21.73828,21.57422c1.86168,4.45885,2.58997,9.64547,2.875,17.20898.42057,11.11665,6.16407,21.40665,15.8711,26.96875c9.70703,5.56231,21.5584,5.3544,31.46875.15625c6.74109-3.53678,11.6315-5.50491,16.45312-6.13476c10.56213-1.38012,21.24401,1.4621,29.69531,7.89843c6.34047,4.82722,11.01875,12.86912,20.37696,28.95508s14.03564,24.1305,15.08007,31.99219c1.38929,10.4824-1.47304,21.08185-7.95703,29.46875-2.96193,3.83099-7.12197,7.04981-13.58203,11.07812-9.48977,5.91791-15.5957,15.99688-15.5957,27.1211s6.10593,21.20709,15.5957,27.125c6.45806,4.02632,10.61814,7.24717,13.58008,11.07617c6.48397,8.38751,9.34631,18.98831,7.95703,29.4707-1.04445,7.86131-5.72186,15.90487-15.08008,31.99024-9.35821,16.08735-14.03648,24.12943-20.37695,28.95703-8.45129,6.43614-19.13318,9.27585-29.69531,7.89453-4.82162-.62987-9.71003-2.59486-16.45313-6.13086-9.91033-5.19835-21.76172-5.40685-31.46875.15625s-15.4486,15.85251-15.86718,26.96875c-.28503,7.5643-1.01528,12.75014-2.87696,17.20898-4.07616,9.76683-11.89572,17.52797-21.73828,21.57422-7.38093,3.0337-16.73866,3.03321-35.45508,3.03321s-28.07415.00049-35.45507-3.03321c-9.84257-4.04625-17.66349-11.80739-21.74024-21.57422-1.86108-4.45884-2.58802-9.64472-2.87305-17.20703-.41898-11.11823-6.16367-21.40759-15.87109-26.9707-9.70743-5.56111-21.5586-5.3546-31.46875-.15625-6.74269,3.536-11.6317,5.50295-16.45313,6.13281-10.56211,1.37932-21.24557-1.46034-29.69726-7.89648-6.33886-4.82561-11.01698-12.86973-20.375-28.95508-9.35781-16.08537-14.03722-24.13088-15.08008-31.99219-1.39047-10.48239,1.47166-21.08125,7.95703-29.46875c2.96034-3.82899,7.12046-7.04982,13.57813-11.07812c9.49096-5.91791,15.59901-15.99883,15.59961-27.12305s-6.10766-21.20706-15.59961-27.12695c-6.45668-4.02632-10.61604-7.24523-13.57617-11.07422-6.48538-8.38831-9.34771-18.98851-7.95704-29.47071c1.04286-7.8619,5.72207-15.90408,15.08008-31.99023c9.35801-16.08597,14.03809-24.12984,20.37696-28.95703c8.45169-6.43633,19.13318-9.2766,29.69531-7.89648c4.82163.62984,9.70983,2.59561,16.45312,6.13281c9.90935,5.19794,21.75996,5.40546,31.4668-.15625c9.70683-5.56192,15.45231-15.85076,15.87109-26.9668.28503-7.56411,1.01197-12.74993,2.87305-17.20898c4.07675-9.76782,11.89767-17.52816,21.74024-21.57422c7.38092-3.03449,16.73864-3.03321,35.45507-3.03321Zm0,139.52539c-33.27697,0-60.25195,26.77106-60.25195,59.79688s26.97498,59.79688,60.25195,59.79688s60.25196-26.77106,60.25196-59.79688-26.97499-59.79688-60.25196-59.79688Z" transform="translate(-655.814453,-465)" fill="#fff" fill-rule="evenodd" stroke-width="5" stroke-linecap="round" stroke-linejoin="round"/></g></svg>
