<?xml version="1.0" encoding="UTF-8" standalone="no"?>
<svg
   viewBox="0 0 968.80273 930.00006"
   version="1.1"
   id="svg9844"
   sodipodi:docname="digi-calcu-logo_v2.svg"
   width="968.80273"
   height="930"
   inkscape:version="1.2 (dc2aedaf03, 2022-05-15)"
   inkscape:export-filename="digi-calcu-logo-stroke.png"
   inkscape:export-xdpi="14.4"
   inkscape:export-ydpi="14.4"
   xmlns:inkscape="http://www.inkscape.org/namespaces/inkscape"
   xmlns:sodipodi="http://sodipodi.sourceforge.net/DTD/sodipodi-0.dtd"
   xmlns="http://www.w3.org/2000/svg"
   xmlns:svg="http://www.w3.org/2000/svg"
   xmlns:bx="https://boxy-svg.com">
  <sodipodi:namedview
     id="namedview9846"
     pagecolor="#ffffff"
     bordercolor="#999999"
     borderopacity="1"
     inkscape:showpageshadow="0"
     inkscape:pageopacity="0"
     inkscape:pagecheckerboard="true"
     inkscape:deskcolor="#d1d1d1"
     showgrid="false"
     inkscape:zoom="0.22386363"
     inkscape:cx="-122.84264"
     inkscape:cy="888.93404"
     inkscape:window-width="1920"
     inkscape:window-height="986"
     inkscape:window-x="-11"
     inkscape:window-y="49"
     inkscape:window-maximized="1"
     inkscape:current-layer="svg9844" />
  <defs
     id="defs9814">
    <bx:grid
       x="0"
       y="0"
       width="22"
       height="22" />
  </defs>
  <path
     id="rect6869"
     style="display:inline;fill:#ffffff;fill-opacity:1;fill-rule:evenodd;stroke:none;stroke-width:34.0821;stroke-linecap:round;stroke-linejoin:round;stroke-opacity:1"
     inkscape:label="carta-marco-4"
     d="m 606.5625,0 c 22.12168,0 41.85389,9.684397 55.36328,25 h 232.08789 c 27.61396,0 50,22.386054 50,50 v 156.91992 c 22.71316,46.77004 22.80274,116.83461 22.80274,233.08008 0,116.24496 -0.0899,186.31011 -22.80274,233.0957 V 855 c 0,27.61394 -22.38604,50 -50,50 H 661.92578 c -13.50939,15.31559 -33.2416,25 -55.36328,25 h 288.4082 c 40.90365,0 73.83204,-32.92839 73.83204,-73.83204 V 73.833984 C 968.80274,32.930343 935.87435,0 894.9707,0 Z" />
  <path
     id="rect6872"
     style="display:inline;fill:#ffffff;fill-opacity:1;fill-rule:evenodd;stroke:none;stroke-width:34.0821;stroke-linecap:round;stroke-linejoin:round;stroke-opacity:1"
     inkscape:label="carta-marco-3"
     d="m 606.5625,0 c 22.12168,0 41.85389,9.684397 55.36328,25 h 135.58789 c 27.61396,0 50,22.386054 50,50 v 88.33789 c 8.85626,1.83195 17.12007,4.02591 24.78907,6.65429 V 73.833984 C 872.30274,32.930343 839.37435,0 798.4707,0 Z m 265.74024,760.02148 c -7.66894,2.62651 -15.93289,4.81779 -24.78907,6.64844 V 855 c 0,27.61394 -22.38604,50 -50,50 H 661.92578 c -13.50939,15.31559 -33.2416,25 -55.36328,25 h 191.9082 c 40.90365,0 73.83204,-32.92839 73.83204,-73.83204 z" />
  <path
     id="rect6875"
     style="display:inline;fill:#ffffff;fill-opacity:1;fill-rule:evenodd;stroke:none;stroke-width:34.0821;stroke-linecap:round;stroke-linejoin:round;stroke-opacity:1"
     inkscape:label="carta-marco-2"
     d="m 606.5625,0 c 22.12168,0 41.85389,9.684397 55.36328,25 h 39.58789 c 27.61396,0 50,22.386054 50,50 v 79.69531 c 8.82851,0.21611 16.69386,0.65102 24.78907,1.02539 V 73.833984 C 776.30274,32.930343 743.37435,0 702.4707,0 Z m 169.74024,774.28125 c -8.09521,0.3741 -15.96056,0.80943 -24.78907,1.02539 V 855 c 0,27.61394 -22.38604,50 -50,50 h -39.58789 c -13.50939,15.31559 -33.2416,25 -55.36328,25 h 95.9082 c 40.90365,0 73.83204,-32.92839 73.83204,-73.83204 z" />
  <path
     id="rect6878"
     style="display:inline;fill:#ffffff;fill-opacity:1;fill-rule:evenodd;stroke:none;stroke-width:34.0821;stroke-linecap:round;stroke-linejoin:round;stroke-opacity:1"
     inkscape:label="carta-marco-1"
     d="M 73.833985,0 C 32.930344,0 0,32.930343 0,73.833984 V 856.16796 C 0,897.07161 32.930344,930 73.833985,930 H 606.5625 c 40.90364,0 73.83203,-32.92839 73.83203,-73.83204 v -80.20898 c -8.21481,0.01 -15.85568,0.041 -24.58008,0.041 -0.28909,0 -0.52593,-0.002 -0.81445,-0.002 v 79.00196 c 0,27.61394 -22.38606,50 -50,50 H 75 c -27.613944,0 -50,-22.38606 -50,-50 V 75 C 25,47.386054 47.386056,25 75,25 h 530 c 27.61394,0 50,22.386054 50,50 v 79.00195 c 0.28852,0 0.52537,-0.002 0.81445,-0.002 8.72441,0 16.36527,0.0334 24.58008,0.043 V 73.833984 C 680.39453,32.930343 647.46614,0 606.5625,0 Z M 277.5,95 c -13.80696,0 -25,11.19302 -25,25 0,13.80696 11.19304,25 25,25 h 125 c 13.80698,0 25,-11.19304 25,-25 0,-13.80698 -11.19302,-25 -25,-25 z m 68.91211,205.35351 c -2.11931,0.29299 -4.63861,1.01172 -6.41211,1.01172 -87.27282,0 -130.9082,109.09028 -130.9082,185.45312 0,72.27486 58.63534,141.81836 130.9082,141.81836 3.02786,0 7.9039,2.10317 9.77149,0.54493 C 344.87452,587.7176 344.81445,534.71942 344.81445,465 c 0,-69.75958 0.0594,-122.77721 4.96485,-164.24805 -0.71034,-0.55558 -1.92442,-0.5979 -3.36719,-0.39844 z M 277.5,785 c -13.80696,0 -25,11.19302 -25,25 0,13.80696 11.19304,25 25,25 h 125 c 13.80698,0 25,-11.19304 25,-25 0,-13.80698 -11.19302,-25 -25,-25 z" />
  <path
     fill-rule="evenodd"
     clip-rule="evenodd"
     d="m 655.815,751 c -134.82,0 -202.23,0 -244.129,-41.871 C 369.815,667.231 369.815,599.82 369.815,465 c 0,-134.82 0,-202.23 41.871,-244.1 C 453.585,179 520.995,179 655.815,179 c 134.821,0 202.231,0 244.101,41.9 41.899,41.87 41.899,109.28 41.899,244.1 0,134.82 0,202.231 -41.899,244.129 C 858.046,751 790.636,751 655.815,751 Z M 562.866,307.701 c 0,-11.841 -9.61,-21.45 -21.451,-21.45 -11.841,0 -21.449,9.609 -21.449,21.45 v 35.75 h -35.75 c -11.841,0 -21.451,9.61 -21.451,21.449 0,11.869 9.61,21.451 21.451,21.451 h 35.75 V 422.1 c 0,11.869 9.608,21.451 21.449,21.451 11.841,0 21.451,-9.582 21.451,-21.451 v -35.749 h 35.749 c 11.841,0 21.451,-9.582 21.451,-21.451 0,-11.839 -9.61,-21.449 -21.451,-21.449 h -35.749 z m 150.15,35.75 c -11.841,0 -21.451,9.61 -21.451,21.449 0,11.869 9.61,21.451 21.451,21.451 h 114.399 c 11.841,0 21.45,-9.582 21.45,-21.451 0,-11.839 -9.609,-21.449 -21.45,-21.449 z m 0,171.599 c -11.841,0 -21.451,9.61 -21.451,21.451 0,11.869 9.61,21.449 21.451,21.449 h 114.399 c 11.841,0 21.45,-9.58 21.45,-21.449 0,-11.841 -9.609,-21.451 -21.45,-21.451 z m -199.342,6.292 c -8.381,-8.378 -21.966,-8.378 -30.346,0 -8.351,8.381 -8.351,21.965 0,30.345 l 27.743,27.714 -27.713,27.741 c -8.381,8.38 -8.381,21.966 0,30.345 8.35,8.38 21.935,8.38 30.316,0 l 27.741,-27.742 27.714,27.742 c 8.379,8.38 21.966,8.38 30.345,0 8.38,-8.379 8.38,-21.965 0,-30.345 l -27.743,-27.741 27.743,-27.714 c 8.38,-8.38 8.38,-21.964 0,-30.345 -8.379,-8.378 -21.966,-8.378 -30.345,0 l -27.714,27.743 z m 199.342,79.508 c -11.841,0 -21.451,9.61 -21.451,21.451 0,11.868 9.61,21.449 21.451,21.449 h 114.399 c 11.841,0 21.45,-9.581 21.45,-21.449 0,-11.841 -9.609,-21.451 -21.45,-21.451 z"
     id="path10392"
     inkscape:label="calc"
     style="display:inline;fill:#ffffff;fill-opacity:1"
     class="UnoptimicedTransforms"
     transform="translate(2.5875e-4,4.84375e-4)" />
</svg>
