<svg viewBox="0 0 968.80273 930.00006" version="1.1" id="svg9844" width="968.80273" height="930" xmlns:inkscape="http://www.inkscape.org/namespaces/inkscape" xmlns:sodipodi="http://sodipodi.sourceforge.net/DTD/sodipodi-0.dtd" xmlns="http://www.w3.org/2000/svg" xmlns:svg="http://www.w3.org/2000/svg" xmlns:bx="https://boxy-svg.com">
  <defs id="defs9814">
    <bx:grid x="0" y="0" width="22" height="22"></bx:grid>
  </defs>
  <path id="rect6869" style="display:inline;fill:#ffffff;fill-opacity:1;fill-rule:evenodd;stroke:none;stroke-width:34.0821;stroke-linecap:round;stroke-linejoin:round;stroke-opacity:1" d="m 606.5625,0 c 22.12168,0 41.85389,9.684397 55.36328,25 h 232.08789 c 27.61396,0 50,22.386054 50,50 v 156.91992 c 22.71316,46.77004 22.80274,116.83461 22.80274,233.08008 0,116.24496 -0.0899,186.31011 -22.80274,233.0957 V 855 c 0,27.61394 -22.38604,50 -50,50 H 661.92578 c -13.50939,15.31559 -33.2416,25 -55.36328,25 h 288.4082 c 40.90365,0 73.83204,-32.92839 73.83204,-73.83204 V 73.833984 C 968.80274,32.930343 935.87435,0 894.9707,0 Z"></path>
  <path id="rect6872" style="display:inline;fill:#ffffff;fill-opacity:1;fill-rule:evenodd;stroke:none;stroke-width:34.0821;stroke-linecap:round;stroke-linejoin:round;stroke-opacity:1" d="m 606.5625,0 c 22.12168,0 41.85389,9.684397 55.36328,25 h 135.58789 c 27.61396,0 50,22.386054 50,50 v 88.33789 c 8.85626,1.83195 17.12007,4.02591 24.78907,6.65429 V 73.833984 C 872.30274,32.930343 839.37435,0 798.4707,0 Z m 265.74024,760.02148 c -7.66894,2.62651 -15.93289,4.81779 -24.78907,6.64844 V 855 c 0,27.61394 -22.38604,50 -50,50 H 661.92578 c -13.50939,15.31559 -33.2416,25 -55.36328,25 h 191.9082 c 40.90365,0 73.83204,-32.92839 73.83204,-73.83204 z"></path>
  <path id="rect6875" style="display:inline;fill:#ffffff;fill-opacity:1;fill-rule:evenodd;stroke:none;stroke-width:34.0821;stroke-linecap:round;stroke-linejoin:round;stroke-opacity:1" d="m 606.5625,0 c 22.12168,0 41.85389,9.684397 55.36328,25 h 39.58789 c 27.61396,0 50,22.386054 50,50 v 79.69531 c 8.82851,0.21611 16.69386,0.65102 24.78907,1.02539 V 73.833984 C 776.30274,32.930343 743.37435,0 702.4707,0 Z m 169.74024,774.28125 c -8.09521,0.3741 -15.96056,0.80943 -24.78907,1.02539 V 855 c 0,27.61394 -22.38604,50 -50,50 h -39.58789 c -13.50939,15.31559 -33.2416,25 -55.36328,25 h 95.9082 c 40.90365,0 73.83204,-32.92839 73.83204,-73.83204 z"></path>
  <path id="rect6878" style="display:inline;fill:#ffffff;fill-opacity:1;fill-rule:evenodd;stroke:none;stroke-width:34.0821;stroke-linecap:round;stroke-linejoin:round;stroke-opacity:1" d="M 73.833985,0 C 32.930344,0 0,32.930343 0,73.833984 V 856.16796 C 0,897.07161 32.930344,930 73.833985,930 H 606.5625 c 40.90364,0 73.83203,-32.92839 73.83203,-73.83204 v -80.20898 c -8.21481,0.01 -15.85568,0.041 -24.58008,0.041 -0.28909,0 -0.52593,-0.002 -0.81445,-0.002 v 79.00196 c 0,27.61394 -22.38606,50 -50,50 H 75 c -27.613944,0 -50,-22.38606 -50,-50 V 75 C 25,47.386054 47.386056,25 75,25 h 530 c 27.61394,0 50,22.386054 50,50 v 79.00195 c 0.28852,0 0.52537,-0.002 0.81445,-0.002 8.72441,0 16.36527,0.0334 24.58008,0.043 V 73.833984 C 680.39453,32.930343 647.46614,0 606.5625,0 Z M 277.5,95 c -13.80696,0 -25,11.19302 -25,25 0,13.80696 11.19304,25 25,25 h 125 c 13.80698,0 25,-11.19304 25,-25 0,-13.80698 -11.19302,-25 -25,-25 z m 68.91211,205.35351 c -2.11931,0.29299 -4.63861,1.01172 -6.41211,1.01172 -87.27282,0 -130.9082,109.09028 -130.9082,185.45312 0,72.27486 58.63534,141.81836 130.9082,141.81836 3.02786,0 7.9039,2.10317 9.77149,0.54493 C 344.87452,587.7176 344.81445,534.71942 344.81445,465 c 0,-69.75958 0.0594,-122.77721 4.96485,-164.24805 -0.71034,-0.55558 -1.92442,-0.5979 -3.36719,-0.39844 z M 277.5,785 c -13.80696,0 -25,11.19302 -25,25 0,13.80696 11.19304,25 25,25 h 125 c 13.80698,0 25,-11.19304 25,-25 0,-13.80698 -11.19302,-25 -25,-25 z"></path>
  <path d="M 655.815 751 C 520.995 751 453.585 751 411.686 709.129 C 369.815 667.231 369.815 599.82 369.815 465 C 369.815 330.18 369.815 262.77 411.686 220.9 C 453.585 179 520.995 179 655.815 179 C 790.636 179 858.046 179 899.916 220.9 C 941.815 262.77 941.815 330.18 941.815 465 C 941.815 599.82 941.815 667.231 899.916 709.129 C 858.046 751 790.636 751 655.815 751 Z M 679.291 345.327 C 673.72 333.538 666.08 322.577 656.472 312.969 C 622.069 278.568 569.473 269.537 525.588 290.501 C 520.775 292.802 517.379 297.291 516.479 302.546 C 515.576 307.803 517.282 313.168 521.054 316.94 L 575.16 371.049 L 551.93 394.28 L 497.822 340.171 C 494.052 336.401 488.685 334.693 483.428 335.595 C 478.172 336.498 473.682 339.894 471.383 344.706 C 450.422 388.59 459.451 441.189 493.852 475.587 C 503.461 485.197 514.424 492.834 526.214 498.403 Z M 776.988 510.923 L 691.806 596.105 L 721.958 626.256 C 733.701 637.997 749.123 643.868 764.547 643.868 C 779.972 643.867 795.397 637.997 807.138 626.254 C 818.515 614.879 824.779 599.753 824.779 583.663 C 824.78 567.574 818.515 552.449 807.14 541.074 Z M 804.09 305.709 C 797.676 299.295 787.274 299.295 780.858 305.709 L 734.394 352.172 C 731.314 355.252 729.583 359.43 729.584 363.788 C 729.584 368.145 731.314 372.322 734.395 375.403 L 746.012 387.019 L 699.547 433.483 L 687.023 420.957 L 668.572 402.506 L 530.008 541.07 C 506.523 564.555 506.523 602.77 530.009 626.254 C 541.751 637.997 557.172 643.868 572.597 643.867 C 588.018 643.865 603.447 637.995 615.188 626.254 L 668.571 572.87 L 668.573 572.871 L 753.754 487.69 L 742.163 476.098 C 742.154 476.091 742.148 476.08 742.14 476.073 C 742.131 476.065 742.122 476.057 742.113 476.049 L 722.779 456.715 L 769.244 410.25 L 780.86 421.865 C 784.068 425.074 788.271 426.677 792.474 426.677 C 796.677 426.677 800.882 425.074 804.09 421.865 L 850.553 375.402 C 853.635 372.32 855.366 368.143 855.366 363.787 C 855.365 359.429 853.635 355.251 850.553 352.171 Z" style="paint-order: fill; fill-rule: nonzero; fill: rgb(255, 255, 255);"></path>
</svg>