<?xml version="1.0" encoding="utf-8"?>
<svg xmlns="http://www.w3.org/2000/svg" viewBox="154 110 572 572" width="572px" height="572px" class="app-logo-tool">
  <path  d="M 440 682 C 305.18 682 237.77 682 195.871 640.129 C 154 598.231 154 530.82 154 396 C 154 261.18 154 193.77 195.871 151.9 C 237.77 110 305.18 110 440 110 C 574.82 110 642.23 110 684.1 151.9 C 726 193.77 726 261.18 726 396 C 726 530.82 726 598.231 684.1 640.129 C 642.23 682 574.82 682 440 682 Z M 347.05 238.701 C 347.05 226.86 337.44 217.251 325.6 217.251 C 313.76 217.251 304.15 226.86 304.15 238.701 L 304.15 274.451 L 268.401 274.451 C 256.56 274.451 246.95 284.061 246.95 295.9 C 246.95 307.769 256.56 317.351 268.401 317.351 L 304.15 317.351 L 304.15 353.1 C 304.15 364.969 313.76 374.551 325.6 374.551 C 337.44 374.551 347.05 364.969 347.05 353.1 L 347.05 317.351 L 382.8 317.351 C 394.64 317.351 404.25 307.769 404.25 295.9 C 404.25 284.061 394.64 274.451 382.8 274.451 L 347.05 274.451 L 347.05 238.701 Z M 497.2 274.451 C 485.36 274.451 475.75 284.061 475.75 295.9 C 475.75 307.769 485.36 317.351 497.2 317.351 L 611.6 317.351 C 623.44 317.351 633.05 307.769 633.05 295.9 C 633.05 284.061 623.44 274.451 611.6 274.451 L 497.2 274.451 Z M 497.2 446.05 C 485.36 446.05 475.75 455.66 475.75 467.501 C 475.75 479.37 485.36 488.95 497.2 488.95 L 611.6 488.95 C 623.44 488.95 633.05 479.37 633.05 467.501 C 633.05 455.66 623.44 446.05 611.6 446.05 L 497.2 446.05 Z M 297.86 452.342 C 289.48 443.964 275.89 443.964 267.513 452.342 C 259.162 460.723 259.162 474.307 267.513 482.687 L 295.26 510.401 L 267.543 538.142 C 259.162 546.522 259.162 560.108 267.543 568.487 C 275.89 576.867 289.48 576.867 297.86 568.487 L 325.6 540.745 L 353.31 568.487 C 361.69 576.867 375.28 576.867 383.66 568.487 C 392.04 560.108 392.04 546.522 383.66 538.142 L 355.92 510.401 L 383.66 482.687 C 392.04 474.307 392.04 460.723 383.66 452.342 C 375.28 443.964 361.69 443.964 353.31 452.342 L 325.6 480.085 L 297.86 452.342 Z M 497.2 531.85 C 485.36 531.85 475.75 541.46 475.75 553.301 C 475.75 565.169 485.36 574.75 497.2 574.75 L 611.6 574.75 C 623.44 574.75 633.05 565.169 633.05 553.301 C 633.05 541.46 623.44 531.85 611.6 531.85 L 497.2 531.85 Z" />
</svg>