<svg xmlns="http://www.w3.org/2000/svg" viewBox="0 0 24 24" fill="currentColor">
  <path
     d="M 12,24 C 6.3432168,24 3.5148252,24 1.7568252,22.243175 0,20.485217 0,17.656783 0,12 0,6.3432168 0,3.5148252 1.7568252,1.758042 3.5148252,0 6.3432168,0 12,0 17.656783,0 20.485175,0 22.241958,1.758042 24,3.5148252 24,6.3432168 24,12 24,17.656783 24,20.485217 22.241958,22.243175 20.485175,24 17.656783,24 12,24 Z M 8.1,5.400042 c 0,-0.4968252 -0.4032168,-0.9 -0.9,-0.9 -0.4967832,0 -0.9,0.4031748 -0.9,0.9 v 1.5 H 4.800042 C 4.3032168,6.900042 3.9,7.3032587 3.9,7.8 3.9,8.298 4.3032168,8.700042 4.800042,8.700042 H 6.3 V 10.2 c 0,0.498 0.4032168,0.900042 0.9,0.900042 0.4967832,0 0.9,-0.402042 0.9,-0.900042 V 8.700042 H 9.6 C 10.096783,8.700042 10.5,8.298 10.5,7.8 10.5,7.3032587 10.096783,6.900042 9.6,6.900042 H 8.1 Z m 6.3,1.5 c -0.496783,0 -0.9,0.4032167 -0.9,0.899958 0,0.498 0.403217,0.900042 0.9,0.900042 h 4.8 C 19.696783,8.700042 20.1,8.298 20.1,7.8 20.1,7.3032587 19.696783,6.900042 19.2,6.900042 Z M 14.4,14.1 c -0.496783,0 -0.9,0.403217 -0.9,0.900042 0,0.498 0.403217,0.899958 0.9,0.899958 h 4.8 c 0.496783,0 0.9,-0.401958 0.9,-0.899958 C 20.1,14.503217 19.696783,14.1 19.2,14.1 Z m -8.3639161,0.264 c -0.3516084,-0.351524 -0.9218182,-0.351524 -1.2733007,0 -0.3503916,0.35165 -0.3503916,0.921608 0,1.273217 L 5.926993,16.800042 4.764042,17.964 c -0.3516504,0.351608 -0.3516504,0.92165 0,1.273217 0.3502237,0.351608 0.9204335,0.351608 1.2720419,0 L 7.2,18.073217 l 1.1626573,1.164 c 0.3516084,0.351608 0.9218182,0.351608 1.2734266,0 0.3516084,-0.351567 0.3516084,-0.921609 0,-1.273217 L 8.4721678,16.800042 9.6360839,15.637217 c 0.3516084,-0.351609 0.3516084,-0.921567 0,-1.273217 -0.3516084,-0.351524 -0.9218182,-0.351524 -1.2734266,0 L 7.2,15.528042 Z M 14.4,17.7 c -0.496783,0 -0.9,0.403217 -0.9,0.900042 C 13.5,19.098 13.903217,19.5 14.4,19.5 h 4.8 c 0.496783,0 0.9,-0.402 0.9,-0.899958 C 20.1,18.103217 19.696783,17.7 19.2,17.7 Z"/>
</svg>
