<?xml version="1.0" encoding="utf-8"?>
<svg xmlns="http://www.w3.org/2000/svg" viewBox="154 110 572 572" width="572px" height="572px">
  <path fill-rule="evenodd" clip-rule="evenodd" d="M 195.152 151.152 C 153.132 193.173 153.132 260.804 153.132 396.066 C 153.132 531.327 153.132 598.96 195.152 640.978 C 237.173 683 304.804 683 440.066 683 C 575.327 683 642.96 683 684.978 640.978 C 727 598.96 727 531.327 727 396.066 C 727 260.804 727 193.173 684.978 151.152 C 642.96 109.132 575.327 109.132 440.066 109.132 C 304.804 109.132 237.173 109.132 195.152 151.152 Z M 482.765 236.7 C 494.245 239.776 501.057 251.576 497.981 263.057 L 423.716 540.213 C 420.64 551.693 408.839 558.508 397.359 555.432 C 385.878 552.353 379.067 540.554 382.143 529.074 L 456.407 251.917 C 459.483 240.437 471.284 233.624 482.765 236.7 Z M 525.277 294.769 C 533.681 286.365 547.305 286.365 555.709 294.769 L 561.689 300.747 C 579.918 318.975 595.119 334.176 605.564 347.867 C 616.591 362.317 624.323 377.584 624.323 396.066 C 624.323 414.547 616.591 429.815 605.564 444.265 C 595.119 457.955 579.918 473.156 561.689 491.385 L 555.709 497.362 C 547.305 505.766 533.681 505.766 525.277 497.362 C 516.872 488.958 516.872 475.334 525.277 466.93 L 530.198 462.006 C 549.758 442.446 562.865 429.276 571.347 418.157 C 579.45 407.537 581.283 401.354 581.283 396.066 C 581.283 390.778 579.45 384.594 571.347 373.975 C 562.865 362.856 549.758 349.686 530.198 330.126 L 525.277 325.203 C 516.872 316.799 516.872 303.173 525.277 294.769 Z M 324.427 294.769 C 332.831 286.365 346.457 286.365 354.861 294.769 C 363.265 303.173 363.265 316.799 354.861 325.203 L 349.938 330.126 C 330.379 349.686 317.273 362.856 308.79 373.975 C 300.686 384.594 298.854 390.778 298.854 396.066 C 298.854 401.354 300.686 407.537 308.79 418.157 C 317.273 429.276 330.379 442.446 349.938 462.006 L 354.861 466.93 C 363.265 475.334 363.265 488.958 354.861 497.362 C 346.457 505.766 332.831 505.766 324.427 497.362 L 318.449 491.385 C 300.219 473.156 285.018 457.955 274.572 444.265 C 263.547 429.815 255.814 414.547 255.814 396.066 C 255.814 377.584 263.547 362.317 274.572 347.867 C 285.018 334.176 300.219 318.976 318.449 300.747 L 324.427 294.769 Z" style="fill: rgb(255, 255, 255);"></path>
</svg>