<svg xmlns="http://www.w3.org/2000/svg" viewBox="0 0 24 24" fill="currentColor">
  <path d="M 1.75734,1.75734 C 0,3.51472 0,6.34315 0,12 0,17.65681 0,20.48532 1.75734,22.24258 3.51472,24 6.34315,24 12,24 17.65681,24 20.48532,24 22.24258,22.24258 24,20.48532 24,17.65681 24,12 24,6.34315 24,3.51472 22.24258,1.75734 20.48532,0 17.65681,0 12,0 6.34315,0 3.51472,0 1.75734,1.75734 Z m 12.02839,3.57774 c 0.48012,0.12864 0.765,0.62214 0.63636,1.10229 l -3.10587,11.59107 c -0.12864,0.48011 -0.62218,0.76512 -1.10229,0.63648 C 9.73378,18.53615 9.44893,18.0427 9.57758,17.56259 L 12.6834,5.97148 c 0.12865,-0.48011 0.62218,-0.76504 1.10233,-0.6364 z m 1.77792,2.42853 c 0.35147,-0.35147 0.92124,-0.35147 1.27271,0 l 0.25009,0.25001 c 0.76237,0.76232 1.39809,1.39805 1.83492,1.97063 0.46116,0.60432 0.78453,1.24281 0.78453,2.01575 0,0.7729 -0.32337,1.41143 -0.78453,2.01575 -0.43683,0.57254 -1.07255,1.20827 -1.83492,1.97063 l -0.25009,0.24997 c -0.35147,0.35146 -0.92124,0.35146 -1.27271,0 -0.35151,-0.35147 -0.35151,-0.92125 0,-1.27271 l 0.2058,-0.20593 c 0.81803,-0.81803 1.36618,-1.36882 1.72091,-1.83383 C 17.82924,12.47973 17.9059,12.22115 17.9059,12 c 0,-0.22115 -0.0767,-0.47978 -0.41554,-0.92388 -0.35473,-0.46501 -0.90288,-1.0158 -1.72091,-1.83383 l -0.2058,-0.20588 c -0.35151,-0.35147 -0.35151,-0.92133 0,-1.2728 z m -8.39984,0 c 0.35147,-0.35147 0.92132,-0.35147 1.27279,0 0.35147,0.35147 0.35147,0.92133 0,1.2728 L 8.23072,9.24229 C 7.41273,10.06032 6.86462,10.61111 6.50985,11.07612 6.17092,11.52022 6.09431,11.77885 6.09431,12 c 0,0.22115 0.0766,0.47973 0.41554,0.92388 0.35477,0.46501 0.90288,1.0158 1.72087,1.83383 l 0.20588,0.20593 c 0.35147,0.35146 0.35147,0.92124 0,1.27271 -0.35147,0.35146 -0.92132,0.35146 -1.27279,0 L 6.9138,15.98638 C 6.15139,15.22402 5.51567,14.58829 5.0788,14.01575 4.61772,13.41143 4.29431,12.7729 4.29431,12 c 0,-0.77294 0.32341,-1.41143 0.78449,-2.01575 0.43687,-0.57258 1.07259,-1.20827 1.835,-1.97063 z" />
</svg>
